<svg width="24" height="24" viewBox="0 0 24 24" fill="none" xmlns="http://www.w3.org/2000/svg">
<path d="M10 12.9854C10.8731 14.1526 12.21 14.883 13.6639 14.9872C15.1177 15.0913 16.5451 14.5588 17.5756 13.5279L20.5898 10.5137C22.4936 8.54253 22.4664 5.40922 20.5286 3.47141C18.5908 1.5336 15.4576 1.50637 13.4864 3.41021L11.7583 5.12832" stroke-width="2" stroke-linecap="round" stroke-linejoin="round"/>
<path d="M14 11.0146C13.1269 9.84743 11.79 9.11697 10.3361 9.01285C8.88226 8.90873 7.45485 9.4412 6.42437 10.4721L3.41019 13.4863C1.50638 15.4575 1.5336 18.5908 3.47139 20.5286C5.40917 22.4664 8.54244 22.4936 10.5136 20.5898L12.2317 18.8717" stroke-width="2" stroke-linecap="round" stroke-linejoin="round"/>
</svg>
