<svg width="24" height="24" viewBox="0 0 24 24" fill="none" xmlns="http://www.w3.org/2000/svg">
<path d="M12 15C13.6569 15 15 13.6569 15 12C15 10.3431 13.6569 9 12 9C10.3431 9 9 10.3431 9 12C9 13.6569 10.3431 15 12 15Z" stroke-width="2" stroke-linecap="round" stroke-linejoin="round"/>
<path d="M19.9434 11.2779L20.8738 9.88234C20.9344 9.79244 20.9745 9.69029 20.9912 9.58314C21.0079 9.476 21.0008 9.36649 20.9704 9.26239C20.7949 8.68443 20.5636 8.12491 20.2797 7.59173C20.2277 7.49682 20.1554 7.41456 20.0679 7.35082C19.9805 7.28708 19.88 7.24344 19.7737 7.22301L18.1275 6.89373L17.1063 5.87251L16.777 4.22619C16.7566 4.1199 16.7129 4.01944 16.6492 3.93197C16.5854 3.8445 16.5032 3.77219 16.4082 3.72019C15.875 3.43637 15.3155 3.20508 14.7375 3.02958C14.6334 2.9992 14.5239 2.99211 14.4168 3.00882C14.3096 3.02552 14.2075 3.06561 14.1176 3.12623L12.7221 4.05653H11.2779L9.88243 3.12623C9.79252 3.06561 9.69037 3.02552 9.58323 3.00882C9.47608 2.99211 9.36658 2.9992 9.26248 3.02958C8.68451 3.20508 8.12498 3.43637 7.59178 3.72018C7.49686 3.77218 7.41458 3.8445 7.35084 3.93198C7.28709 4.01945 7.24345 4.11992 7.22303 4.22621L6.89383 5.87242L5.87252 6.89373L4.22629 7.22293C4.12 7.24335 4.01954 7.28699 3.93207 7.35073C3.8446 7.41447 3.77229 7.49674 3.72029 7.59166C3.43642 8.12486 3.2051 8.68441 3.02958 9.2624C2.9992 9.36649 2.99211 9.476 3.00882 9.58314C3.02553 9.69028 3.06562 9.79243 3.12624 9.88233L4.05654 11.2778V12.722L3.12624 14.1175C3.06561 14.2074 3.02553 14.3096 3.00883 14.4167C2.99212 14.5238 2.99921 14.6333 3.02959 14.7374C3.20506 15.3154 3.43635 15.875 3.72019 16.4082C3.77219 16.5031 3.84451 16.5854 3.93197 16.6491C4.01944 16.7128 4.1199 16.7565 4.22618 16.7769L5.87252 17.1062L6.89374 18.1274L7.22294 19.7737C7.24337 19.88 7.28701 19.9805 7.35074 20.068C7.41448 20.1554 7.49674 20.2277 7.59166 20.2797C8.12483 20.5636 8.68436 20.7949 9.26234 20.9704C9.36642 21.0007 9.47592 21.0078 9.58306 20.9911C9.69019 20.9744 9.79233 20.9343 9.88223 20.8737L11.2778 19.9434H12.722L14.1176 20.8738C14.2075 20.9344 14.3096 20.9745 14.4168 20.9912C14.5239 21.0079 14.6334 21.0008 14.7375 20.9704C15.3155 20.7949 15.875 20.5637 16.4082 20.2798C16.5031 20.2278 16.5853 20.1555 16.6491 20.068C16.7128 19.9806 16.7565 19.8801 16.7769 19.7738L17.1062 18.1275L18.1274 17.1062L19.7737 16.777C19.88 16.7566 19.9805 16.7129 20.0679 16.6492C20.1554 16.5854 20.2277 16.5032 20.2797 16.4083C20.5636 15.8751 20.7949 15.3156 20.9704 14.7376C21.0008 14.6335 21.0079 14.524 20.9912 14.4169C20.9745 14.3097 20.9344 14.2076 20.8737 14.1177L19.9434 12.7221V11.2779Z" stroke-width="2" stroke-linecap="round" stroke-linejoin="round"/>
</svg>
