<svg width="24" height="24" viewBox="0 0 24 24" fill="none" xmlns="http://www.w3.org/2000/svg">
<path d="M5.39759 9.74997C5.39637 8.86047 5.56786 7.97953 5.90216 7.15791C6.23646 6.3363 6.72696 5.59026 7.3454 4.96281C7.96384 4.33535 8.69797 3.83889 9.50549 3.50204C10.313 3.16519 11.1779 2.99461 12.0504 3.00013C15.6911 3.02772 18.6031 6.11277 18.6031 9.8347V10.5C18.6031 13.8577 19.2922 15.8061 19.8991 16.8711C19.9645 16.9849 19.9993 17.1142 20 17.2461C20.0007 17.378 19.9672 17.5077 19.9031 17.6222C19.8389 17.7367 19.7462 17.8319 19.6344 17.8982C19.5226 17.9646 19.3957 17.9997 19.2663 18H4.7337C4.60433 17.9997 4.47734 17.9645 4.36553 17.8982C4.25373 17.8318 4.16106 17.7366 4.09689 17.6221C4.03271 17.5076 3.9993 17.3778 4.00001 17.2459C4.00073 17.1141 4.03555 16.9847 4.10096 16.8709C4.70819 15.8059 5.39759 13.8575 5.39759 10.5L5.39759 9.74997Z" stroke-width="2" stroke-linecap="round" stroke-linejoin="round"/>
<path d="M9 18C9 18.8487 9.31607 19.463 9.87868 20.0631C10.4413 20.6632 11.2044 21.0004 12 21.0004C12.7956 21.0004 13.5587 20.6632 14.1213 20.0631C14.6839 19.463 15 18.8487 15 18" stroke-width="2" stroke-linecap="round" stroke-linejoin="round"/>
</svg>
