<svg width="24" height="24" viewBox="0 0 24 24" fill="none" xmlns="http://www.w3.org/2000/svg">
<path opacity="0.2" d="M12 15L11.929 15.071L7.70711 19.2929C7.31658 19.6834 6.68342 19.6834 6.29289 19.2929L4.70711 17.7071C4.31658 17.3166 4.31658 16.6834 4.70711 16.2929L9 12" stroke-width="2"/>
<path d="M8.41421 9.41421L10 11L9 12L4.70711 16.2929C4.31658 16.6834 4.31658 17.3166 4.70711 17.7071L6.29289 19.2929C6.68342 19.6834 7.31658 19.6834 7.70711 19.2929L12 15L13 14L14.5858 15.5858C15.3668 16.3668 16.6332 16.3668 17.4142 15.5858L18.5858 14.4142C19.3668 13.6332 19.3668 12.3668 18.5858 11.5858L12.4142 5.41421C11.6332 4.63317 10.3668 4.63316 9.58579 5.41421L8.41421 6.58579C7.63317 7.36683 7.63317 8.63317 8.41421 9.41421Z" stroke-width="2" stroke-linejoin="round"/>
</svg>
