<svg width="120" height="32" viewBox="0 0 120 32" fill="none" xmlns="http://www.w3.org/2000/svg">
<path d="M20.8267 12.8795C17.5088 12.8795 15.1741 15.2025 15.1741 18.4221C15.1741 21.6417 17.5088 23.9851 20.8267 23.9851C24.1445 23.9851 26.4792 21.6417 26.4792 18.4221C26.4792 15.2025 24.1445 12.8795 20.8267 12.8795ZM20.8267 21.2138C19.2497 21.2138 18.3281 19.8689 18.3281 18.4221C18.3281 16.9753 19.2497 15.6304 20.8267 15.6304C22.4036 15.6304 23.3253 16.9753 23.3253 18.4221C23.3253 19.8689 22.4036 21.2138 20.8267 21.2138Z" fill="white"/>
<path d="M33.3455 12.8795C30.0276 12.8795 27.6929 15.2025 27.6929 18.4221C27.6929 21.6417 30.0276 23.9851 33.3455 23.9851C36.6633 23.9851 38.998 21.6417 38.998 18.4221C38.998 15.2025 36.6633 12.8795 33.3455 12.8795ZM33.3455 21.2138C31.7685 21.2138 30.8468 19.8689 30.8468 18.4221C30.8468 16.9753 31.7685 15.6304 33.3455 15.6304C34.9224 15.6304 35.8441 16.9753 35.8441 18.4221C35.8441 19.8689 34.9224 21.2138 33.3455 21.2138Z" fill="white"/>
<path d="M47.0931 23.6795H50.9229L46.5196 17.9942L50.5338 13.1852H46.9292L43.7753 17.281V9.00781H40.7032V23.6795H43.7753V18.9315L47.0931 23.6795Z" fill="white"/>
<path d="M53.579 9.00781C52.5754 9.00781 51.7972 9.7414 51.7972 10.6991C51.7972 11.555 52.5754 12.3089 53.579 12.3089C54.5825 12.3089 55.3608 11.555 55.3608 10.6991C55.3608 9.7414 54.5825 9.00781 53.579 9.00781ZM55.115 23.6795V13.1852H52.0429V23.6795H55.115Z" fill="white"/>
<path d="M67.6013 20.3987H64.5088C64.222 21.173 63.5667 21.5398 62.3993 21.5398C60.9452 21.5398 60.2079 20.6636 60.044 19.5225H67.6832V18.5648C67.6832 14.8765 65.2461 12.8795 62.2764 12.8795C58.9995 12.8795 56.8491 15.2636 56.8491 18.3406C56.8491 21.6825 58.9176 23.9851 62.3993 23.9851C65.4713 23.9851 67.2122 22.1308 67.6013 20.3987ZM62.2764 15.3248C63.6281 15.3248 64.4678 16.1806 64.5497 17.3625H59.9826C60.0645 16.201 60.9247 15.3248 62.2764 15.3248Z" fill="white"/>
<path d="M85.4037 13.9187C85.4037 11.127 83.2942 9.00781 80.468 9.00781H74.3853V23.6795H77.5597V18.85H80.468C83.2942 18.85 85.4037 16.7308 85.4037 13.9187ZM82.2497 13.9187C82.2497 15.1006 81.3691 15.9565 80.2017 15.9565H77.5597V11.9014H80.2017C81.3691 11.9014 82.2497 12.7572 82.2497 13.9187Z" fill="white"/>
<path d="M93.4559 23.6795H95.7702V16.8734C95.7702 14.0614 93.7426 12.8795 91.244 12.8795C88.2539 12.8795 86.6154 14.5097 86.513 16.4455H89.2574C89.3598 15.875 89.9742 15.2025 91.203 15.2025C92.2066 15.2025 92.9029 15.6101 92.9029 16.69V17.3217C92.3295 17.1587 91.5512 17.0161 90.4657 17.0161C87.537 17.0161 86.1853 18.361 86.1853 20.4598C86.1853 22.5791 87.7214 23.8628 90.1995 23.8628C92.1656 23.8628 92.9029 23.2312 93.2511 22.9866L93.4559 23.6795ZM91.0802 19.1557C92.1246 19.1557 92.9439 19.4817 92.9439 20.4395C92.9439 21.3972 92.1246 21.7232 91.0802 21.7232C90.0357 21.7232 89.196 21.3972 89.196 20.4395C89.196 19.4817 90.0357 19.1557 91.0802 19.1557Z" fill="white"/>
<path d="M100.928 23.6795V18.0349C100.928 16.4251 101.542 15.6304 102.648 15.6304C103.754 15.6304 104.368 16.4251 104.368 18.0349V23.6795H107.44V17.1791C107.44 14.2652 105.536 12.8795 103.529 12.8795C101.849 12.8795 100.907 13.9595 100.805 14.2244V13.1852H97.8556V23.6795H100.928Z" fill="white"/>
<path d="M117.03 22.9051C117.03 24.9632 115.842 25.5542 114.614 25.5542C113.569 25.5542 112.791 25.1059 112.402 24.1278H109.248C109.616 26.2674 111.009 27.9994 114.614 27.9994C118.136 27.9994 120 26.5323 120 22.8236V13.1852H117.03V14.3263C116.662 13.6538 115.658 12.8795 114.04 12.8795C111.173 12.8795 109.043 15.2433 109.043 18.2183C109.043 21.173 111.173 23.5164 114.04 23.5164C115.658 23.5164 116.6 22.7421 117.03 22.0289V22.9051ZM114.614 15.6712C116.109 15.6712 117.03 16.9142 117.03 18.198C117.03 19.4817 116.109 20.7247 114.614 20.7247C113.118 20.7247 112.197 19.4817 112.197 18.198C112.197 16.9142 113.118 15.6712 114.614 15.6712Z" fill="white"/>
<g clip-path="url(#clip0_1207_29626)">
<path d="M12.1894 10.0507L13.6536 6.65788L10.1945 5L8.73027 8.39286L8.54724 8.81697C9.55387 9.02902 10.8167 9.53024 11.9698 10.552L12.1894 10.0507Z" fill="white"/>
<path d="M7.57727 17.2024C10.524 17.0097 12.3542 14.8699 12.9765 13.6939C12.9765 13.6746 12.9948 13.6554 13.0131 13.6361C12.5738 12.8264 12.0614 12.1903 11.5306 11.6698C10.3592 10.5517 9.04146 10.0697 8.10804 9.93479C7.88841 9.89623 7.68708 9.87695 7.52236 9.87695C7.48576 9.87695 7.44915 9.87695 7.43085 9.87695C7.0099 9.87695 6.64385 9.91551 6.2595 9.95406C6.24119 9.95406 6.20459 9.95406 6.18629 9.93479C1.22634 10.5902 -0.0182265 14.9084 7.59454e-05 17.1832C-0.0182265 19.6507 1.42766 24.4894 7.41255 24.5087C7.43085 24.5087 7.44915 24.5087 7.46746 24.5087C8.67541 24.5087 11.3842 23.7761 13.0314 20.7495C12.464 19.6314 10.5972 17.3952 7.57727 17.2024Z" fill="white"/>
</g>
<defs>
<clipPath id="clip0_1207_29626">
<rect width="13.6536" height="19.5282" fill="white" transform="translate(0 5)"/>
</clipPath>
</defs>
</svg>
