<svg width="119" height="32" viewBox="0 0 119 32" fill="none" xmlns="http://www.w3.org/2000/svg">
<g clip-path="url(#clip0_1139_23916)">
<path d="M19.8 12.9346C16.5 12.9346 14.1 15.2446 14.1 18.4586C14.1 21.6726 16.4 23.9826 19.8 23.9826C23.1 23.9826 25.5 21.6726 25.5 18.4586C25.5 15.2446 23.1 12.9346 19.8 12.9346ZM19.8 21.2708C18.2 21.2708 17.3 19.9651 17.3 18.4586C17.3 16.952 18.2 15.6464 19.8 15.6464C21.4 15.6464 22.3 16.952 22.3 18.4586C22.3 19.9651 21.4 21.2708 19.8 21.2708Z" fill="white"/>
<path d="M32.3 12.9346C29 12.9346 26.6 15.2446 26.6 18.4586C26.6 21.6726 28.9 23.9826 32.3 23.9826C35.6 23.9826 38 21.6726 38 18.4586C38 15.2446 35.7 12.9346 32.3 12.9346ZM32.3 21.2708C30.7 21.2708 29.8 19.9651 29.8 18.4586C29.8 16.952 30.7 15.6464 32.3 15.6464C33.9 15.6464 34.8 16.952 34.8 18.4586C34.8 19.9651 33.9 21.2708 32.3 21.2708Z" fill="white"/>
<path d="M46.1 23.6813H49.9L45.5 18.0569L49.5 13.2359H45.9L42.7 17.3538V9.01758H39.6V23.6813H42.7V18.9608L46.1 23.6813Z" fill="white"/>
<path d="M52.6 9.01758C51.6 9.01758 50.8 9.72063 50.8 10.725C50.8 11.6289 51.6 12.332 52.6 12.332C53.6 12.332 54.4001 11.5285 54.4001 10.725C54.4001 9.72063 53.6 9.01758 52.6 9.01758ZM54.1 23.6813V13.2359H51V23.7818H54.1V23.6813Z" fill="white"/>
<path d="M66.6 20.4672H63.5C63.2 21.2707 62.6001 21.572 61.4001 21.572C59.9001 21.572 59.2 20.668 59 19.5632H66.6V18.5589C66.6 14.8427 64.2001 12.834 61.2001 12.834C57.9001 12.834 55.8 15.2445 55.8 18.2576C55.8 21.572 57.9001 23.882 61.4001 23.882C64.5001 23.9825 66.2 22.1746 66.6 20.4672ZM61.3 15.3449C62.7 15.3449 63.5 16.2488 63.6 17.3536H59C59.1 16.2488 59.9 15.3449 61.3 15.3449Z" fill="white"/>
<path d="M92.5001 23.6811H94.8001V16.8515C94.8001 14.0392 92.8001 12.834 90.3001 12.834C87.3001 12.834 85.7001 14.441 85.6001 16.4497H88.3001C88.4001 15.8471 89.0001 15.2445 90.2001 15.2445C91.2001 15.2445 91.9001 15.6462 91.9001 16.751V17.3536C91.3001 17.1528 90.5001 17.0523 89.5001 17.0523C86.6001 17.0523 85.2001 18.358 85.2001 20.4672C85.2001 22.5763 86.7001 23.882 89.2001 23.882C91.2001 23.882 91.9001 23.2794 92.3001 22.9781L92.5001 23.6811ZM90.1001 19.1615C91.1001 19.1615 92.0001 19.4628 92.0001 20.4672C92.0001 21.4715 91.2001 21.7728 90.1001 21.7728C89.0001 21.7728 88.2001 21.4715 88.2001 20.4672C88.2001 19.4628 89.0001 19.1615 90.1001 19.1615Z" fill="white"/>
<path d="M99.9 23.6811V18.0567C99.9 16.4497 100.5 15.6462 101.6 15.6462C102.7 15.6462 103.3 16.4497 103.3 18.0567V23.6811H106.4V17.1528C106.4 14.2401 104.5 12.834 102.5 12.834C100.8 12.834 99.9 13.9388 99.8 14.1397V13.1353H96.9V23.6811H99.9Z" fill="white"/>
<path d="M116 22.9782C116 25.0874 114.8 25.5896 113.6 25.5896C112.6 25.5896 111.8 25.1878 111.4 24.1835H108.2C108.6 26.2926 110 28.1005 113.6 28.1005C117.1 28.1005 119 26.594 119 22.8778V13.2359H116V14.3407C115.6 13.6376 114.6 12.9346 113 12.9346C110.1 12.9346 108 15.345 108 18.2577C108 21.1704 110.1 23.5809 113 23.5809C114.6 23.5809 115.6 22.7774 116 22.0743V22.9782ZM113.6 15.6464C115.1 15.6464 116 16.8516 116 18.1573C116 19.463 115.1 20.6682 113.6 20.6682C112.1 20.6682 111.2 19.463 111.2 18.1573C111.2 16.8516 112.1 15.6464 113.6 15.6464Z" fill="white"/>
<path d="M12.2 10.0218L13.7 6.60699L10.2 5L8.7 8.41485L8.5 8.81659C9.5 9.01747 10.8 9.51965 11.9 10.524L12.2 10.0218Z" fill="white"/>
<path d="M7.60002 17.2536C10.5 17.0527 12.4 14.9436 13 13.7383C13 13.7383 13 13.7383 13 13.6379C12.6 12.8344 12 12.2318 11.5 11.6291C10.4 10.5243 9.00002 10.1226 8.10003 9.92173C7.90003 9.92173 7.70002 9.82129 7.50002 9.82129H7.40002C7.00002 9.82129 6.60002 9.82129 6.20002 9.92173H6.10002C1.10002 10.6248 -0.0999756 14.9436 -0.0999756 17.1532C-0.0999756 19.6641 1.30002 24.485 7.30002 24.485C7.30002 24.485 7.30002 24.485 7.40002 24.485C8.60002 24.485 11.3 23.782 13 20.7689C12.5 19.6641 10.6 17.4545 7.60002 17.2536Z" fill="white"/>
<path d="M81.1 16.8518L72.9 15.4456C72.2 15.3452 71.7 14.6421 71.8 13.9391L72.7 8.81682C72.8 8.11376 73.5 7.61158 74.2 7.71202L82.4 9.11813C83.8 9.41944 84.8 10.7251 84.5 12.2317L84.1 14.6421C83.9 16.1487 82.6 17.1531 81.1 16.8518Z" fill="white"/>
<path d="M75.7 6.80831L77.4 7.10962C77.9 7.21005 78.2 7.71224 78.2 8.21442L75.7 22.7777C75.6 23.2799 75.1 23.5812 74.6 23.5812L72.9 23.0791C72.4 23.0791 72 22.5769 72.1 22.0747L74.6 7.51136C74.8 7.00918 75.2 6.70787 75.7 6.80831Z" fill="white"/>
</g>
<defs>
<clipPath id="clip0_1139_23916">
<rect width="119" height="23" fill="white" transform="translate(0 5)"/>
</clipPath>
</defs>
</svg>
