<svg width="68" height="68" viewBox="0 0 68 68" fill="none" xmlns="http://www.w3.org/2000/svg">
<rect width="68" height="68" rx="34" fill="#3E6DFE"/>
<g clip-path="url(#clip0_728_34571)">
<path d="M42.5846 51.9992C42.52 51.9623 42.4554 51.9254 42.3815 51.8977C41.7354 51.6208 41.3661 50.9838 41.4954 50.3561C41.6246 49.6823 42.1784 49.23 42.9169 49.23C44.56 49.2208 46.203 49.23 47.8461 49.23C48.8061 49.23 49.2215 48.8146 49.2215 47.8546C49.2215 46.2577 49.2215 44.6608 49.2215 43.0638C49.2215 42.2054 49.6369 41.6423 50.3477 41.5038C51.0215 41.3746 51.6123 41.7438 51.9354 42.5284C51.9446 42.5561 51.9723 42.5746 51.9907 42.5931C51.9907 44.5961 51.9907 46.59 51.9907 48.5931C51.963 48.6946 51.9261 48.7869 51.8984 48.8884C51.5384 50.3931 50.6246 51.39 49.1384 51.8423C48.9538 51.8977 48.76 51.9531 48.5754 52.0084C46.5815 51.9992 44.5877 51.9992 42.5846 51.9992Z" fill="#F1F1F5"/>
<path d="M25.4154 16C25.4985 16.0369 25.5724 16.0831 25.6554 16.1108C26.2739 16.3877 26.6247 17.0246 26.5047 17.6431C26.3754 18.3077 25.8308 18.7692 25.1293 18.7692C23.5047 18.7785 21.8708 18.7692 20.2462 18.7692C19.1662 18.7692 18.7785 19.1569 18.7785 20.2369C18.7785 21.8062 18.7785 23.3662 18.7785 24.9354C18.7785 25.7938 18.3724 26.3569 17.6524 26.4954C16.9785 26.6338 16.3877 26.2554 16.0647 25.4708C16.0554 25.4431 16.0277 25.4246 16.0093 25.4062C16.0093 23.4031 16.0093 21.4092 16.0093 19.4062C16.037 19.3046 16.0739 19.2123 16.1016 19.1108C16.4616 17.6062 17.3754 16.6092 18.8616 16.1569C19.037 16.1015 19.2308 16.0554 19.4154 16C21.4185 16 23.4124 16 25.4154 16Z" fill="#F1F1F5"/>
<path d="M52.0001 25.4159C51.5755 26.3021 51.0032 26.6621 50.3109 26.4959C49.5632 26.3205 49.2217 25.7759 49.2217 24.7605C49.2217 23.2098 49.2217 21.659 49.2217 20.1082C49.2217 19.2128 48.7878 18.779 47.8925 18.779C46.2771 18.779 44.6709 18.779 43.0555 18.779C42.1971 18.779 41.634 18.3728 41.4955 17.6528C41.3663 16.979 41.7355 16.3882 42.5201 16.0652C42.5478 16.0559 42.5663 16.0282 42.5848 16.0098C44.5878 16.0098 46.5817 16.0098 48.5848 16.0098C48.6863 16.0375 48.7786 16.0744 48.8801 16.1021C50.3663 16.4621 51.354 17.3575 51.8248 18.8159C51.8894 19.019 51.9448 19.2221 52.0001 19.4252C52.0001 21.419 52.0001 23.4128 52.0001 25.4159Z" fill="#F1F1F5"/>
<path d="M16 42.5855C16.0277 42.5301 16.0646 42.4839 16.0923 42.4285C16.3785 41.7362 16.9969 41.367 17.6523 41.4962C18.3262 41.6347 18.7785 42.1793 18.7785 42.9178C18.7877 44.5608 18.7785 46.2039 18.7785 47.847C18.7785 48.807 19.1938 49.2224 20.1538 49.2224C21.7508 49.2224 23.3477 49.2224 24.9446 49.2224C25.8031 49.2224 26.3662 49.6285 26.5046 50.3485C26.6338 51.0224 26.2646 51.6131 25.48 51.9362C25.4523 51.9455 25.4338 51.9731 25.4154 51.9916C23.4123 51.9916 21.4185 51.9916 19.4154 51.9916C18.6954 51.7978 17.9938 51.5762 17.4031 51.0778C16.6185 50.4224 16.2215 49.5547 16 48.5855C16 46.5824 16 44.5885 16 42.5855Z" fill="#F1F1F5"/>
<path d="M31.8771 40.9683C31.8771 41.8268 31.8863 42.6852 31.8771 43.5529C31.8679 44.8452 30.9263 45.796 29.634 45.8052C27.8986 45.8145 26.1633 45.8145 24.4279 45.8052C23.1633 45.796 22.2125 44.8452 22.194 43.5806C22.1756 41.8268 22.1756 40.0729 22.194 38.3283C22.2033 37.0637 23.1725 36.1314 24.4371 36.1222C26.1725 36.1129 27.9079 36.1129 29.6433 36.1222C30.9171 36.1314 31.8586 37.0729 31.8679 38.3375C31.8863 39.2145 31.8771 40.0914 31.8771 40.9683ZM29.0709 43.0268C29.0709 41.6237 29.0709 40.2668 29.0709 38.9191C27.6863 38.9191 26.3386 38.9191 24.9909 38.9191C24.9909 40.3037 24.9909 41.6606 24.9909 43.0268C26.3663 43.0268 27.7048 43.0268 29.0709 43.0268Z" fill="#F1F1F5"/>
<path d="M40.9508 31.8779C40.0923 31.8779 39.2339 31.8871 38.3662 31.8779C37.0739 31.8594 36.1231 30.9271 36.1139 29.6348C36.1046 27.8994 36.1046 26.164 36.1139 24.4286C36.1231 23.164 37.0739 22.2132 38.3292 22.204C40.0831 22.1948 41.8369 22.1856 43.5816 22.204C44.8185 22.2132 45.7692 23.164 45.7877 24.4009C45.8062 26.164 45.8062 27.9363 45.7877 29.6994C45.7692 30.9363 44.8092 31.8594 43.5631 31.8779C43.5354 31.8779 43.4985 31.8779 43.4708 31.8779C42.64 31.8779 41.8 31.8779 40.9508 31.8779ZM38.9108 29.0809C40.3139 29.0809 41.6616 29.0809 43 29.0809C43 27.6963 43 26.3394 43 24.9917C41.6154 24.9917 40.2677 24.9917 38.9108 24.9917C38.9108 26.3671 38.9108 27.7148 38.9108 29.0809Z" fill="#F1F1F5"/>
<path d="M36.1232 40.9513C36.1232 40.0928 36.114 39.2343 36.1232 38.3667C36.1325 37.0743 37.074 36.1236 38.3663 36.1143C40.1017 36.1051 41.8371 36.1051 43.5725 36.1143C44.8371 36.1236 45.7879 37.0651 45.7971 38.3297C45.8155 40.0836 45.8155 41.8374 45.7971 43.582C45.7786 44.8374 44.8186 45.779 43.554 45.7882C41.8186 45.7974 40.0832 45.7974 38.3479 45.7882C37.0832 45.779 36.1417 44.819 36.1232 43.5636C36.1232 43.5359 36.1232 43.499 36.1232 43.4713C36.1232 42.6405 36.1232 41.8005 36.1232 40.9513ZM38.9109 43.0097C40.314 43.0097 41.6617 43.0097 43.0186 43.0097C43.0186 41.6343 43.0186 40.2867 43.0186 38.9205C41.634 38.9205 40.2771 38.9205 38.9109 38.9205C38.9109 40.2959 38.9109 41.6436 38.9109 43.0097Z" fill="#F1F1F5"/>
<path d="M31.877 27.0498C31.877 27.9083 31.8862 28.7667 31.877 29.6344C31.8586 30.9267 30.9262 31.8683 29.6247 31.8775C27.9078 31.8867 26.1816 31.8867 24.4647 31.8775C23.1447 31.8683 22.2032 30.9267 22.1939 29.6067C22.1847 27.899 22.1847 26.1913 22.1939 24.4929C22.2032 23.1452 23.1539 22.2037 24.4924 22.1944C26.1816 22.1852 27.8709 22.1852 29.5601 22.1944C30.9355 22.2037 31.8678 23.136 31.877 24.5206C31.8862 25.3606 31.877 26.2098 31.877 27.0498ZM29.0801 29.0898C29.0801 27.6867 29.0801 26.3483 29.0801 25.0006C27.6955 25.0006 26.3386 25.0006 24.9909 25.0006C24.9909 26.3852 24.9909 27.7329 24.9909 29.0898C26.3662 29.0898 27.7139 29.0898 29.0801 29.0898Z" fill="#F1F1F5"/>
</g>
<defs>
<clipPath id="clip0_728_34571">
<rect width="36" height="36" fill="white" transform="translate(16 16)"/>
</clipPath>
</defs>
</svg>
