<svg width="35" height="30" viewBox="0 0 35 30" fill="none" xmlns="http://www.w3.org/2000/svg">
<path d="M30.5556 4.32364C29 4.32364 27.4444 4.32364 25.8889 4.32364C25.7778 4.32364 25.7778 4.32364 25.6667 4.21818C25.5556 3.79636 25.3333 3.26909 25.2222 2.84727C24.6667 1.26545 23.4444 0.316364 21.7778 0H13.3333L13 0.105455C12.7778 0.105455 12.6667 0.210909 12.4444 0.210909C11.1111 0.632727 10.1111 1.47636 9.66667 2.74182C9.55556 3.16364 9.44445 3.69091 9.22222 4.21818C9.22222 4.32364 9.22222 4.32364 9 4.32364C7.77778 4.32364 6.44444 4.32364 5.22222 4.32364H4.44444C2.11111 4.32364 0.333333 5.69455 0 7.90909L0.222222 8.01454H0V26.3091C0.222222 26.9418 0.444444 27.68 0.888889 28.3127C1.77778 29.4727 3 30 4.44444 30C9 30 13.5556 30 18.1111 30C22.2222 30 26.4444 30 30.5556 30C33 30 35 28.1018 35 25.7818C35 20.4036 35 14.0255 35 8.64727C35 6.22182 33 4.42909 30.5556 4.32364ZM21 2.74182C21.7778 2.74182 22.3333 3.16364 22.6667 3.90182C22.7778 4.21818 22.8889 4.64 23 4.95636C23.1111 5.27273 23.2222 5.69454 23.3333 6.01091C23.5556 6.74909 24.1111 7.06545 24.8889 7.06545H30.3333C31.5556 7.06545 32.1111 7.69818 32.1111 8.75273V25.36C32.1111 26.4145 31.4444 27.0473 30.3333 27.0473H4.66667C3.44444 27.0473 2.77778 26.4145 2.77778 25.2545V8.85818C2.77778 7.69818 3.44444 7.06545 4.55556 7.06545H10C10.8889 7.06545 11.3333 6.74909 11.6667 6.01091L12 5.06182C12.1111 4.64 12.2222 4.21818 12.3333 3.79636C12.5556 3.05818 13.1111 2.63636 14 2.63636C16.3333 2.74182 18.6667 2.74182 21 2.74182Z" fill="white"/>
<path d="M10 16.5C10 20.625 13.375 24 17.5 24C21.625 24 25 20.625 25 16.5938C25 14.625 24.25 12.6562 22.8438 11.25C21.4375 9.84375 19.5625 9 17.5 9C13.375 9 10.0938 12.375 10 16.5ZM17.5938 21.6562C14.7812 21.6562 12.5312 19.4062 12.5312 16.5938C12.5312 15.1875 13.0938 13.9688 14.0312 12.9375C14.9688 12 16.2812 11.4375 17.6875 11.4375C20.5 11.4375 22.75 13.7812 22.75 16.5938C22.75 17.9062 22.1875 19.2188 21.25 20.1562C20.125 21.0938 18.9062 21.6562 17.5938 21.6562Z" fill="white"/>
<path d="M28.5 12C29.3077 12 30 11.3077 30 10.5C30 9.69231 29.3077 9 28.5 9C28.1538 9 27.6923 9.11539 27.4615 9.46154C27.2308 9.69231 27 10.1538 27 10.5C27 11.3077 27.6923 12 28.5 12Z" fill="white"/>
</svg>
