<svg width="32" height="32" viewBox="0 0 32 32" fill="none" xmlns="http://www.w3.org/2000/svg">
<circle cx="16" cy="16" r="16" fill="#553EF5"/>
<path d="M11.8735 14.5C11.8727 13.907 11.9799 13.3197 12.1888 12.7719C12.3978 12.2242 12.7044 11.7268 13.0909 11.3085C13.4774 10.8902 13.9362 10.5593 14.4409 10.3347C14.9456 10.1101 15.4862 9.9964 16.0315 10.0001C18.3069 10.0185 20.127 12.0752 20.127 14.5565V15C20.127 17.2385 20.5576 18.5374 20.937 19.2474C20.9778 19.3232 20.9996 19.4095 21 19.4974C21.0004 19.5853 20.9795 19.6718 20.9394 19.7481C20.8993 19.8244 20.8414 19.8879 20.7715 19.9321C20.7016 19.9764 20.6223 19.9998 20.5414 20H11.4586C11.3777 19.9998 11.2983 19.9764 11.2285 19.9321C11.1586 19.8879 11.1007 19.8244 11.0606 19.7481C11.0204 19.6717 10.9996 19.5852 11 19.4973C11.0005 19.4094 11.0222 19.3231 11.0631 19.2473C11.4426 18.5373 11.8735 17.2384 11.8735 15L11.8735 14.5Z" stroke="#F1F1F5" stroke-linecap="round" stroke-linejoin="round"/>
<path d="M14 20V20.4C14 20.8243 14.2107 21.2313 14.5858 21.5314C14.9609 21.8314 15.4696 22 16 22C16.5304 22 17.0391 21.8314 17.4142 21.5314C17.7893 21.2313 18 20.8243 18 20.4V20" stroke="#F1F1F5" stroke-linecap="round" stroke-linejoin="round"/>
</svg>
