<svg width="33" height="33" viewBox="0 0 33 33" fill="none" xmlns="http://www.w3.org/2000/svg">
<path d="M24.3692 33C24.31 32.9662 24.2508 32.9323 24.1831 32.9069C23.5908 32.6531 23.2523 32.0692 23.3708 31.4939C23.4892 30.8762 23.9969 30.4615 24.6738 30.4615C26.18 30.4531 27.6862 30.4615 29.1923 30.4615C30.0723 30.4615 30.4531 30.0808 30.4531 29.2008C30.4531 27.7369 30.4531 26.2731 30.4531 24.8092C30.4531 24.0223 30.8338 23.5062 31.4854 23.3792C32.1031 23.2608 32.6446 23.5992 32.9408 24.3185C32.9492 24.3438 32.9746 24.3608 32.9915 24.3777C32.9915 26.2138 32.9915 28.0415 32.9915 29.8777C32.9661 29.9708 32.9323 30.0554 32.9069 30.1485C32.5769 31.5277 31.7392 32.4415 30.3769 32.8562C30.2077 32.9069 30.03 32.9577 29.8608 33.0085C28.0331 33 26.2054 33 24.3692 33Z" fill="#F1F1F5"/>
<path d="M8.63077 0C8.70692 0.0338462 8.77462 0.0761538 8.85077 0.101538C9.41769 0.355385 9.73923 0.939231 9.62923 1.50615C9.51077 2.11538 9.01154 2.53846 8.36846 2.53846C6.87923 2.54692 5.38154 2.53846 3.89231 2.53846C2.90231 2.53846 2.54692 2.89385 2.54692 3.88385C2.54692 5.32231 2.54692 6.75231 2.54692 8.19077C2.54692 8.97769 2.17462 9.49384 1.51462 9.62077C0.896923 9.74769 0.355385 9.40077 0.0592308 8.68154C0.0507692 8.65615 0.0253846 8.63923 0.00846154 8.62231C0.00846154 6.78615 0.00846154 4.95846 0.00846154 3.12231C0.0338462 3.02923 0.0676923 2.94462 0.0930769 2.85154C0.423077 1.47231 1.26077 0.558462 2.62308 0.143846C2.78385 0.0930769 2.96154 0.0507692 3.13077 0C4.96692 0 6.79462 0 8.63077 0Z" fill="#F1F1F5"/>
<path d="M33 8.63077C32.6108 9.44308 32.0862 9.77308 31.4515 9.62077C30.7662 9.46 30.4531 8.96077 30.4531 8.03C30.4531 6.60846 30.4531 5.18692 30.4531 3.76538C30.4531 2.94462 30.0554 2.54692 29.2346 2.54692C27.7538 2.54692 26.2815 2.54692 24.8008 2.54692C24.0138 2.54692 23.4977 2.17462 23.3708 1.51462C23.2523 0.896923 23.5908 0.355385 24.31 0.0592308C24.3354 0.0507692 24.3523 0.0253846 24.3692 0.00846154C26.2054 0.00846154 28.0331 0.00846154 29.8692 0.00846154C29.9623 0.0338462 30.0469 0.0676923 30.14 0.0930769C31.5023 0.423077 32.4077 1.24385 32.8392 2.58077C32.8985 2.76692 32.9492 2.95308 33 3.13923C33 4.96692 33 6.79462 33 8.63077Z" fill="#F1F1F5"/>
<path d="M0 24.3692C0.0253846 24.3185 0.0592308 24.2762 0.0846154 24.2254C0.346923 23.5908 0.913846 23.2523 1.51462 23.3708C2.13231 23.4977 2.54692 23.9969 2.54692 24.6738C2.55538 26.18 2.54692 27.6862 2.54692 29.1923C2.54692 30.0723 2.92769 30.4531 3.80769 30.4531C5.27154 30.4531 6.73538 30.4531 8.19923 30.4531C8.98615 30.4531 9.50231 30.8254 9.62923 31.4854C9.74769 32.1031 9.40923 32.6446 8.69 32.9408C8.66461 32.9492 8.64769 32.9746 8.63077 32.9915C6.79461 32.9915 4.96692 32.9915 3.13077 32.9915C2.47077 32.8138 1.82769 32.6108 1.28615 32.1538C0.566923 31.5531 0.203077 30.7577 0 29.8692C0 28.0331 0 26.2054 0 24.3692Z" fill="#F1F1F5"/>
<path d="M14.5539 22.8885C14.5539 23.6754 14.5623 24.4623 14.5539 25.2577C14.5454 26.4423 13.6823 27.3138 12.4977 27.3223C10.9069 27.3308 9.31615 27.3308 7.72539 27.3223C6.56615 27.3138 5.69462 26.4423 5.67769 25.2831C5.66077 23.6754 5.66077 22.0677 5.67769 20.4685C5.68615 19.3092 6.57462 18.4546 7.73385 18.4462C9.32462 18.4377 10.9154 18.4377 12.5062 18.4462C13.6739 18.4546 14.5369 19.3177 14.5454 20.4769C14.5623 21.2808 14.5539 22.0846 14.5539 22.8885ZM11.9815 24.7754C11.9815 23.4892 11.9815 22.2454 11.9815 21.01C10.7123 21.01 9.47692 21.01 8.24154 21.01C8.24154 22.2792 8.24154 23.5231 8.24154 24.7754C9.50231 24.7754 10.7292 24.7754 11.9815 24.7754Z" fill="#F1F1F5"/>
<path d="M22.8715 14.5538C22.0846 14.5538 21.2977 14.5623 20.5023 14.5538C19.3177 14.5369 18.4462 13.6823 18.4377 12.4977C18.4292 10.9069 18.4292 9.31615 18.4377 7.72538C18.4462 6.56615 19.3177 5.69461 20.4685 5.68615C22.0762 5.67769 23.6838 5.66923 25.2831 5.68615C26.4169 5.69461 27.2885 6.56615 27.3054 7.7C27.3223 9.31615 27.3223 10.9408 27.3054 12.5569C27.2885 13.6908 26.4085 14.5369 25.2662 14.5538C25.2408 14.5538 25.2069 14.5538 25.1815 14.5538C24.42 14.5538 23.65 14.5538 22.8715 14.5538ZM21.0015 11.99C22.2877 11.99 23.5231 11.99 24.75 11.99C24.75 10.7208 24.75 9.47692 24.75 8.24154C23.4808 8.24154 22.2454 8.24154 21.0015 8.24154C21.0015 9.50231 21.0015 10.7377 21.0015 11.99Z" fill="#F1F1F5"/>
<path d="M18.4462 22.8715C18.4462 22.0846 18.4377 21.2977 18.4462 20.5023C18.4546 19.3177 19.3177 18.4462 20.5023 18.4377C22.0931 18.4292 23.6838 18.4292 25.2746 18.4377C26.4338 18.4462 27.3054 19.3092 27.3138 20.4685C27.3308 22.0762 27.3308 23.6838 27.3138 25.2831C27.2969 26.4338 26.4169 27.2969 25.2577 27.3054C23.6669 27.3138 22.0762 27.3138 20.4854 27.3054C19.3262 27.2969 18.4631 26.4169 18.4462 25.2662C18.4462 25.2408 18.4462 25.2069 18.4462 25.1815C18.4462 24.42 18.4462 23.65 18.4462 22.8715ZM21.0015 24.7585C22.2877 24.7585 23.5231 24.7585 24.7669 24.7585C24.7669 23.4977 24.7669 22.2623 24.7669 21.01C23.4977 21.01 22.2538 21.01 21.0015 21.01C21.0015 22.2708 21.0015 23.5062 21.0015 24.7585Z" fill="#F1F1F5"/>
<path d="M14.5538 10.1285C14.5538 10.9154 14.5623 11.7023 14.5538 12.4977C14.5369 13.6823 13.6823 14.5454 12.4892 14.5538C10.9154 14.5623 9.33308 14.5623 7.75923 14.5538C6.54923 14.5454 5.68615 13.6823 5.67769 12.4723C5.66923 10.9069 5.66923 9.34154 5.67769 7.78462C5.68615 6.54923 6.55769 5.68615 7.78462 5.67769C9.33308 5.66923 10.8815 5.66923 12.43 5.67769C13.6908 5.68615 14.5454 6.54077 14.5538 7.81C14.5623 8.58 14.5538 9.35846 14.5538 10.1285ZM11.99 11.9985C11.99 10.7123 11.99 9.48539 11.99 8.25C10.7208 8.25 9.47692 8.25 8.24154 8.25C8.24154 9.51923 8.24154 10.7546 8.24154 11.9985C9.50231 11.9985 10.7377 11.9985 11.99 11.9985Z" fill="#F1F1F5"/>
</svg>
