<svg width="69" height="68" viewBox="0 0 69 68" fill="none" xmlns="http://www.w3.org/2000/svg">
<rect x="0.5" width="68" height="68" rx="34" fill="#3E6DFE"/>
<g clip-path="url(#clip0_728_34559)">
<path d="M35 17C25.0565 17 17 23.3552 17 31.2011C17 36.3062 20.4123 40.7784 25.5387 43.2839C25.1613 44.6857 24.1759 48.3628 23.9767 49.1526C23.7303 50.1308 24.3331 50.1151 24.7315 49.8535C25.0408 49.6495 29.6639 46.5112 31.6558 45.1564C32.7408 45.3186 33.8573 45.4023 34.9948 45.4023C44.933 45.4023 52.9948 39.0471 52.9948 31.2011C52.9948 23.3552 44.9383 17 35 17ZM26.3774 29.9406L26.3669 36.233C26.3722 37.1065 24.4222 37.1117 24.417 36.2382C24.4275 35.0404 24.417 29.9353 24.417 29.9353H22.5405C21.4397 29.9353 21.4397 28.1046 22.5352 28.1046C22.5352 28.1046 26.9278 28.1046 28.2382 28.1046C29.4071 28.1046 29.4019 29.9406 28.2382 29.9406C27.0064 29.9406 26.3774 29.9406 26.3774 29.9406ZM33.5376 36.437C33.0815 35.2392 33.2021 35.1816 33.2021 35.1816H29.7688L29.3914 36.4945C28.993 37.4151 27.2632 36.6619 27.6669 35.7466C28.2225 34.4755 29.8893 29.6843 30.3506 28.6695C30.7542 27.7855 32.3582 28.068 32.6412 28.6695C32.9715 29.3757 34.7956 34.3761 35.325 35.7622C35.6919 36.7351 33.9097 37.4099 33.5376 36.437ZM40.4985 36.8764C39.6179 36.8764 37.6261 36.8868 36.7298 36.8868C35.8334 36.8868 35.9854 35.8407 35.9854 35.8407C35.9854 35.8407 35.9802 30.5944 35.975 28.9677C35.9697 27.8222 38.0035 27.8222 38.0035 28.9624C38.0087 30.1393 37.9983 34.9933 37.9983 34.9933C37.9983 34.9933 39.6075 35.0038 40.4881 35.0038C41.3792 35.0038 41.3791 36.8764 40.4985 36.8764ZM46.558 36.7299L44.0839 33.3614L43.5178 33.8112C43.5178 33.8112 43.5178 35.4746 43.5178 36.3533C43.5178 37.1065 41.5941 37.1117 41.5941 36.3533C41.5941 35.8721 41.636 29.4175 41.615 28.7061C41.5941 27.9477 43.5073 27.8954 43.5282 28.6538C43.5545 29.6215 43.5282 31.3738 43.5282 31.3738C43.5282 31.3738 46.3221 28.5858 46.7152 28.1883C47.1241 27.7803 48.3978 29.0566 47.9837 29.4646C47.2813 30.1602 45.4991 32.0851 45.4991 32.0851L48.1252 35.5373C48.6337 36.2016 47.0612 37.389 46.558 36.7299Z" fill="white"/>
<path d="M30.3872 33.4612H32.5625L31.5194 30.1973L30.3872 33.4612Z" fill="white"/>
</g>
<defs>
<clipPath id="clip0_728_34559">
<rect width="36" height="33" fill="white" transform="translate(17 17)"/>
</clipPath>
</defs>
</svg>
