<svg width="68" height="68" viewBox="0 0 68 68" fill="none" xmlns="http://www.w3.org/2000/svg">
<rect width="68" height="68" rx="34" fill="#3E6DFE"/>
<path fill-rule="evenodd" clip-rule="evenodd" d="M31.7914 16.5H29.878L29.8407 16.5056C29.6835 16.5295 29.5226 16.5525 29.3593 16.5758C28.9389 16.6359 28.5021 16.6983 28.0727 16.7829C25.5904 17.2757 23.3686 18.3543 21.4509 20.0164L21.4492 20.0178C18.8316 22.3071 17.2404 25.179 16.6658 28.6061C16.6108 28.9226 16.5708 29.2432 16.5325 29.5497C16.5201 29.6489 16.5079 29.7465 16.4954 29.8421L16.4912 29.8743V31.7867L16.4967 31.8235C16.5235 32.0018 16.5481 32.1888 16.5734 32.381C16.642 32.9023 16.7156 33.4618 16.8503 33.9877C18.0869 38.9507 21.0881 42.499 25.9073 44.2788C30.7008 46.0501 35.2358 45.2937 39.3797 42.3506C39.4189 42.3237 39.4583 42.2962 39.4979 42.2679L39.4999 42.2699C42.5845 45.3546 45.6698 48.4398 48.764 51.5164C48.9574 51.7098 49.1678 51.868 49.3644 52.0059C49.4489 52.0652 49.5256 52.1174 49.5989 52.1672L49.5991 52.1673C49.7098 52.2426 49.8126 52.3125 49.9222 52.3935L50.0546 52.4912H50.9174L50.9944 52.4655C51.7256 52.2218 52.2307 51.7167 52.4744 50.9856L52.5 50.9086V50.0416L52.3977 49.9073C52.3107 49.7931 52.2323 49.6806 52.1474 49.5589L52.1474 49.5588C52.0998 49.4906 52.0502 49.4194 51.9958 49.3434C51.8538 49.1445 51.6916 48.9305 51.4991 48.7378C49.3133 46.5331 47.1136 44.337 44.9143 42.1413L44.9141 42.1411C44.0347 41.2632 43.1554 40.3853 42.2771 39.507C42.31 39.4627 42.3416 39.4209 42.3733 39.3793L42.3778 39.3733C43.7358 37.5414 44.6341 35.5002 44.9915 33.2463C45.7022 28.7179 44.5303 24.6883 41.4859 21.2611C39.2271 18.7189 36.3627 17.2303 33.025 16.666C32.7445 16.6163 32.457 16.5818 32.1854 16.5492L32.1854 16.5492C32.0609 16.5343 31.9398 16.5198 31.8243 16.5044L31.7914 16.5ZM20.4182 30.8589C20.4182 25.1047 25.1137 20.4185 30.8494 20.427C36.5777 20.4354 41.2477 25.0347 41.291 30.8603C41.2814 36.5968 36.5767 41.2997 30.8502 41.2997C25.1142 41.2997 20.4182 36.5959 20.4182 30.8589Z" fill="#F1F1F5"/>
</svg>
